<svg width="100" height="116" viewBox="0 0 100 116" fill="none" xmlns="http://www.w3.org/2000/svg">
<path d="M56.8097 0C65.1909 0 72.6259 2.03153 79.1146 6.09458C85.6032 10.0222 90.6725 15.7105 94.3224 23.1594C98.1075 30.6083 100 39.4116 100 49.5692V111.327C100 112.682 99.5945 113.833 98.7834 114.781C97.9723 115.594 96.8908 116 95.539 116H43.2241C41.8723 116 40.7232 115.594 39.777 114.781C38.9659 113.833 38.5603 112.682 38.5603 111.327V105.03C38.5603 103.675 38.9659 102.592 39.777 101.779C40.7232 100.831 41.8723 100.357 43.2241 100.357H82.3589V50.7881C82.3589 43.8809 81.1423 37.7863 78.709 32.5044C76.4109 27.2224 73.1666 23.1594 68.976 20.3152C64.7854 17.3357 60.0541 15.8459 54.782 15.8459H33.0855L17.4721 111.124C17.3369 112.479 16.7962 113.63 15.8499 114.578C14.9037 115.526 13.7546 116 12.4028 116H4.08922C2.73741 116 1.65597 115.526 0.84488 114.578C0.168976 113.63 -0.101386 112.479 0.0337953 111.124L16.2555 16.049H5.91416C4.56235 16.049 3.41331 15.6427 2.46705 14.8301C1.65596 13.8821 1.25042 12.7309 1.25042 11.3765V4.6725C1.25042 3.31816 1.65596 2.23468 2.46705 1.42207C3.41331 0.474024 4.56235 0 5.91416 0H56.8097Z" fill="black"/>
</svg>
