<svg width="16" height="16" viewBox="0 0 16 16" fill="none" xmlns="http://www.w3.org/2000/svg">
<rect width="16" height="16" fill="#5DB9ED"/>
<path d="M8.11288 3C8.86718 3 9.53633 3.17513 10.1203 3.52539C10.7043 3.86398 11.1605 4.35435 11.489 4.9965C11.8297 5.63865 12 6.39755 12 7.2732V12.5972C12 12.714 11.9635 12.8132 11.8905 12.8949C11.8175 12.965 11.7202 13 11.5985 13H6.89017C6.7685 13 6.66509 12.965 6.57993 12.8949C6.50693 12.8132 6.47043 12.714 6.47043 12.5972V12.0543C6.47043 11.9375 6.50693 11.8441 6.57993 11.7741C6.66509 11.6924 6.7685 11.6515 6.89017 11.6515H10.4123V7.37828C10.4123 6.78284 10.3028 6.25744 10.0838 5.8021C9.87699 5.34676 9.58499 4.9965 9.20784 4.75131C8.83069 4.49445 8.40487 4.36602 7.93038 4.36602H5.9777L4.57249 12.5797C4.56032 12.6964 4.51166 12.7957 4.4265 12.8774C4.34133 12.9591 4.23792 13 4.11626 13H3.36803C3.24637 13 3.14904 12.9591 3.07604 12.8774C3.01521 12.7957 2.99088 12.6964 3.00304 12.5797L4.46299 4.38354H3.53227C3.41061 4.38354 3.3072 4.34851 3.22203 4.27846C3.14904 4.19673 3.11254 4.09749 3.11254 3.98074V3.4028C3.11254 3.28605 3.14904 3.19264 3.22203 3.12259C3.3072 3.04086 3.41061 3 3.53227 3H8.11288Z" fill="white"/>
</svg>
